<svg xmlns="http://www.w3.org/2000/svg" width="320" height="400" viewBox="295 -375 320 400" enable-background="new 295 -375 320 400"><path fill="#4DADC1" d="M295.5-375h319.5v400h-319.5z"/><g><path opacity=".2" fill="#268999" d="M335-255h40v40h-40v-40z"/><path opacity=".2" fill="#4CADC1" d="M335-255v40h40l-40-40z"/><path opacity=".2" fill="#1E6B76" d="M415-175h40v40h-40v-40z"/><path opacity=".2" fill="#268999" d="M415-175v40h40l-40-40zm160-40h40v40h-40v-40z"/><path opacity=".2" fill="#4CADC1" d="M575-215v40h40l-40-40z"/><path opacity=".2" fill="#1E6B76" d="M455-15h40v40h-40v-40z"/><path opacity=".2" fill="#4CADC1" d="M495-15h-40v40l40-40z"/><path opacity=".2" fill="#1E6B76" d="M295-95h40v40h-40v-40z"/><path opacity=".2" fill="#268999" d="M335-95h-40v40l40-40z"/><path opacity=".2" fill="#1E6B76" d="M375-255h40v40h-40v-40z"/><path opacity=".2" fill="#4CADC1" d="M395-255l-20 20 20 20v-40z"/><path opacity=".2" fill="#268999" d="M395-255l20 20-20 20v-40z"/><path opacity=".2" fill="#4CADC1" d="M575-15h40v40h-40v-40z"/><path opacity=".2" fill="#1E6B76" d="M595-15l-20 20 20 20v-40z"/><path opacity=".2" fill="#268999" d="M595-15l20 20-20 20v-40z"/><path opacity=".2" fill="#1E6B76" d="M295-175h40v40h-40v-40z"/><path opacity=".2" fill="#85C4CF" d="M335-155l-20-20-20 20h40z"/><path opacity=".2" fill="#4CADC1" d="M335-155l-20 20-20-20h40zm80-100h40v40h-40v-40z"/><path opacity=".2" fill="#85C4CF" d="M415-255v40h40c0-22.1-17.9-40-40-40z"/><path opacity=".2" fill="#4CADC1" d="M415-235v20h20c0-11.1-9-20-20-20zm160 100h40v40h-40v-40z"/><path opacity=".2" fill="#85C4CF" d="M615-135h-40v40c22.1 0 40-17.9 40-40z"/><path opacity=".2" fill="#4CADC1" d="M595-135h-20v20c11 0 20-8.9 20-20z"/><path opacity=".2" fill="#268999" d="M495-55h40v40h-40v-40z"/><path opacity=".2" fill="#85C4CF" d="M495-55v40h40c0-22.1-17.9-40-40-40z"/><path opacity=".2" fill="#268999" d="M495-35v20h20c0-11-9-20-20-20zm40-260h40v40h-40v-40z"/><path opacity=".2" fill="#85C4CF" d="M535-295v40h40c0-22.1-17.9-40-40-40z"/><path opacity=".2" fill="#268999" d="M535-275v20h20c0-11-9-20-20-20zm-160 140h40v40h-40v-40z"/><path opacity=".2" fill="#85C4CF" d="M415-95v-40h-40c0 22.1 17.9 40 40 40z"/><path opacity=".2" fill="#268999" d="M415-115v-20h-20c0 11.1 9 20 20 20z"/><path opacity=".2" fill="#85C4CF" d="M295-255h40v40h-40v-40z"/><circle opacity=".2" fill="#268999" cx="315" cy="-235" r="20"/><circle opacity=".2" fill="#85C4CF" cx="315" cy="-235" r="8"/><path opacity=".2" fill="#1E6B76" d="M575-55h40v40h-40v-40z"/><circle opacity=".2" fill="#268999" cx="595" cy="-35" r="20"/><circle opacity=".2" fill="#1E6B76" cx="595" cy="-35" r="8"/><path opacity=".2" fill="#4CADC1" d="M455-215h40v40h-40v-40z"/><circle opacity=".2" fill="#268999" cx="475" cy="-195" r="20"/><circle opacity=".2" fill="#4CADC1" cx="475" cy="-195" r="8"/><path opacity=".2" fill="#1E6B76" d="M295-295h40v40h-40v-40z"/><path opacity=".2" fill="#4CADC1" d="M295-295h20v20h-20v-20zm20 20h20v20h-20v-20z"/><path opacity=".2" fill="#85C4CF" d="M335-295h40v40h-40v-40z"/><path opacity=".2" fill="#4CADC1" d="M355-275c-11 0-20 9-20 20 11 0 20-9 20-20zm20-20c-11 0-20 9-20 20 11 0 20-9 20-20zm-20 20c0-11-9-20-20-20 0 11 9 20 20 20zm20 20c0-11-9-20-20-20 0 11 9 20 20 20z"/><path opacity=".2" fill="#85C4CF" d="M535-15h40v40h-40v-40z"/><path opacity=".2" fill="#268999" d="M555 5c-11 0-20 9-20 20 11 0 20-9 20-20zm20-20c-11 0-20 9-20 20 11 0 20-9 20-20zm-20 20c0-11-9-20-20-20 0 11 9 20 20 20zm20 20c0-11-9-20-20-20 0 11 9 20 20 20z"/><path opacity=".2" fill="#1E6B76" d="M535-135h40v40h-40v-40z"/><path opacity=".2" fill="#4CADC1" d="M555-115c-11 0-20 9-20 20 11 0 20-9 20-20zm20-20c-11 0-20 8.9-20 20 11 0 20-8.9 20-20zm-20 20c0-11.1-9-20-20-20 0 11.1 9 20 20 20zm20 20c0-11-9-20-20-20 0 11 9 20 20 20zm-160-280h40v40h-40v-40z"/><path opacity=".2" fill="#268999" d="M435-355c-11 0-20 9-20 20 11 0 20-9 20-20zm20-20c-11 0-20 9-20 20 11 0 20-9 20-20zm-20 20c0-11-9-20-20-20 0 11 9 20 20 20zm20 20c0-11-9-20-20-20 0 11 9 20 20 20z"/><path opacity=".2" fill="#4CADC1" d="M495-255h40v40h-40v-40z"/><path opacity=".2" fill="#268999" d="M515-235c-11 0-20 8.9-20 20 11 0 20-8.9 20-20zm20-20c-11 0-20 8.9-20 20 11 0 20-8.9 20-20zm-20 20c0-11.1-9-20-20-20 0 11.1 9 20 20 20zm20 20c0-11.1-9-20-20-20 0 11.1 9 20 20 20z"/><path opacity=".2" fill="#4CADC1" d="M375-295h40v40h-40v-40z"/><path opacity=".2" fill="#1E6B76" d="M395-275c11 0 20-9 20-20h-40c0 11 9 20 20 20z"/><path opacity=".2" fill="#268999" d="M395-275c-11 0-20 9-20 20h40c0-11-9-20-20-20z"/><path opacity=".2" fill="#4CADC1" d="M575-335h40v40h-40v-40z"/><path opacity=".2" fill="#1E6B76" d="M595-315c11 0 20-9 20-20h-40c0 11 9 20 20 20zm0 0c-11 0-20 9-20 20h40c0-11-9-20-20-20z"/><path opacity=".2" fill="#4CADC1" d="M455-135h40v40h-40v-40z"/><path opacity=".2" fill="#268999" d="M475-115c11 0 20-8.9 20-20h-40c0 11.1 9 20 20 20zm0 0c-11 0-20 9-20 20h40c0-11-9-20-20-20zm-180-100h40v40h-40v-40z"/><path opacity=".2" fill="#4CADC1" d="M315-195c0 11.1 9 20 20 20v-40c-11 0-20 8.9-20 20zm0 0c0-11.1-9-20-20-20v40c11 0 20-8.9 20-20z"/><path opacity=".2" fill="#268999" d="M575-175h40v40h-40v-40z"/><path opacity=".2" fill="#1E6B76" d="M595-155c0 11.1 9 20 20 20v-40c-11 0-20 8.9-20 20zm0 0c0-11.1-9-20-20-20v40c11 0 20-8.9 20-20z"/><path opacity=".2" fill="#85C4CF" d="M335-15h40v40h-40v-40z"/><path opacity=".2" fill="#268999" d="M355 5c0 11 9 20 20 20v-40c-11 0-20 9-20 20zm0 0c0-11-9-20-20-20v40c11 0 20-9 20-20zm140-100h40v40h-40v-40z"/><path opacity=".2" fill="#4CADC1" d="M515-75c0 11 9 20 20 20v-40c-11 0-20 9-20 20zm0 0c0-11-9-20-20-20v40c11 0 20-9 20-20z"/><path opacity=".2" fill="#1E6B76" d="M415-295h40v40h-40v-40z"/><circle opacity=".2" fill="#85C4CF" cx="435" cy="-275" r="20"/><path opacity=".2" fill="#4CADC1" d="M435-295c-11 0-20 9-20 20h20v-20zm20 20h-20v20c11 0 20-9 20-20zm-80 260h40v40h-40v-40z"/><circle opacity=".2" fill="#85C4CF" cx="395" cy="5" r="20"/><path opacity=".2" fill="#268999" d="M395-15c-11 0-20 9-20 20h20v-20zm20 20h-20v20c11 0 20-9 20-20z"/><path opacity=".2" fill="#85C4CF" d="M295-135h40v40h-40v-40z"/><circle opacity=".2" fill="#268999" cx="315" cy="-115" r="20"/><path opacity=".2" fill="#4CADC1" d="M315-135c-11 0-20 8.9-20 20h20v-20zm20 20h-20v20c11 0 20-9 20-20z"/><path opacity=".2" fill="#1E6B76" d="M335-335h40v40h-40v-40z"/><circle opacity=".2" fill="#4CADC1" cx="355" cy="-315" r="20"/><circle opacity=".2" fill="#1E6B76" cx="355" cy="-315" r="12"/><circle opacity=".2" fill="#4CADC1" cx="355" cy="-315" r="4"/><path opacity=".2" fill="#4CADC1" d="M375-175h40v40h-40v-40z"/><circle opacity=".2" fill="#1E6B76" cx="395" cy="-155" r="20"/><circle opacity=".2" fill="#4CADC1" cx="395" cy="-155" r="12"/><circle opacity=".2" fill="#1E6B76" cx="395" cy="-155" r="4"/><path opacity=".2" fill="#4CADC1" d="M375-335h40v40h-40v-40z"/><path opacity=".2" fill="#268999" d="M415-335l-40 40h40v-40z"/><path opacity=".2" fill="#85C4CF" d="M415-335h40v40h-40v-40z"/><path opacity=".2" fill="#4CADC1" d="M415-335c22.1 0 40 17.9 40 40-22.1 0-40-17.9-40-40z"/><path opacity=".2" fill="#268999" d="M295-335h40v40h-40v-40z"/><path opacity=".2" fill="#4CADC1" d="M315-315c0 11 9 20 20 20v-40c-11 0-20 9-20 20zm0 0c0-11-9-20-20-20v40c11 0 20-9 20-20z"/><path opacity=".2" fill="#85C4CF" d="M375-375h40v40h-40v-40z"/><path opacity=".2" fill="#268999" d="M375-375h20v20h-20v-20zm20 20h20v20h-20v-20z"/><path opacity=".2" fill="#4CADC1" d="M535-55h40v40h-40v-40z"/><path opacity=".2" fill="#1E6B76" d="M535-55h20v20h-20v-20zm20 20h20v20h-20v-20z"/><path opacity=".2" fill="#85C4CF" d="M495-215h40v40h-40v-40z"/><path opacity=".2" fill="#268999" d="M495-215h20v20h-20v-20zm20 20h20v20h-20v-20z"/><path opacity=".2" fill="#4CADC1" d="M335-375h40v40h-40v-40z"/><path opacity=".2" fill="#85C4CF" d="M375-375c-22.1 0-40 17.9-40 40 22.1 0 40-17.9 40-40z"/><path opacity=".2" fill="#1E6B76" d="M375-55h40v40h-40v-40z"/><path opacity=".2" fill="#85C4CF" d="M415-55c-22.1 0-40 17.9-40 40 22.1 0 40-17.9 40-40z"/><path opacity=".2" fill="#4CADC1" d="M495-175h40v40h-40v-40z"/><path opacity=".2" fill="#85C4CF" d="M535-135c0-22.1-17.9-40-40-40 0 22.1 17.9 40 40 40z"/><path opacity=".2" fill="#1E6B76" d="M295-375h40v40h-40v-40z"/><path opacity=".2" fill="#268999" d="M295-375c0 22.1 17.9 40 40 40v-40h-40z"/><path opacity=".2" fill="#1E6B76" d="M535-255h40v40h-40v-40z"/><path opacity=".2" fill="#4CADC1" d="M535-255c0 22.1 17.9 40 40 40v-40h-40zm-80 160h40v40h-40v-40z"/><path opacity=".2" fill="#1E6B76" d="M455-95c0 22.1 17.9 40 40 40v-40h-40z"/><path opacity=".2" fill="#268999" d="M335-175h40v40h-40v-40z"/><path opacity=".2" fill="#85C4CF" d="M375-135c0-22.1-17.9-40-40-40v40h40z"/><path opacity=".2" fill="#268999" d="M415-15h40v40h-40v-40z"/><path opacity=".2" fill="#85C4CF" d="M455 25c0-22.1-17.9-40-40-40v40h40z"/><path opacity=".2" fill="#1E6B76" d="M455-375h40v40h-40v-40z"/><path opacity=".2" fill="#85C4CF" d="M495-375c-22.1 0-40 17.9-40 40h40v-40z"/><path opacity=".2" fill="#4CADC1" d="M495-355c-11 0-20 9-20 20h20v-20z"/><path opacity=".2" fill="#268999" d="M495-375h40v40h-40v-40z"/><path opacity=".2" fill="#1E6B76" d="M495-355c11 0 20-9 20-20h-20v20zm40 0c-11 0-20 9-20 20h20v-20zm-20-20c0 11 9 20 20 20v-20h-20zm-20 20v20h20c0-11-9-20-20-20z"/><path opacity=".2" fill="#4CADC1" d="M375-215h40v40h-40v-40z"/><path opacity=".2" fill="#85C4CF" d="M375-195c11 0 20-8.9 20-20h-20v20zm40 0c-11 0-20 8.9-20 20h20v-20zm-20-20c0 11.1 9 20 20 20v-20h-20zm-20 20v20h20c0-11.1-9-20-20-20z"/><path opacity=".2" fill="#4CADC1" d="M575-255h40v40h-40v-40z"/><path opacity=".2" fill="#85C4CF" d="M575-235c11 0 20-8.9 20-20h-20v20zm40 0c-11 0-20 8.9-20 20h20v-20zm-20-20c0 11.1 9 20 20 20v-20h-20zm-20 20v20h20c0-11.1-9-20-20-20z"/><path opacity=".2" fill="#1E6B76" d="M295-55h40v40h-40v-40z"/><path opacity=".2" fill="#85C4CF" d="M295-35c11 0 20-9 20-20h-20v20zm40 0c-11 0-20 9-20 20h20v-20zm-20-20c0 11 9 20 20 20v-20h-20zm-20 20v20h20c0-11-9-20-20-20z"/><path opacity=".2" fill="#268999" d="M535-95h40v40h-40v-40z"/><path opacity=".2" fill="#85C4CF" d="M535-75c11 0 20-9 20-20h-20v20zm40 0c-11 0-20 9-20 20h20v-20zm-20-20c0 11 9 20 20 20v-20h-20zm-20 20v20h20c0-11-9-20-20-20z"/><path opacity=".2" fill="#4CADC1" d="M455-335h40v40h-40v-40z"/><path opacity=".2" fill="#268999" d="M475-335l-20 20v-20h20zm20 0l-20 20v-20h20zm-40 20l20 20h-20v-20zm20 0l20 20h-20v-20z"/><path opacity=".2" fill="#4CADC1" d="M575-95h40v40h-40v-40z"/><path opacity=".2" fill="#268999" d="M595-95l-20 20v-20h20zm20 0l-20 20v-20h20zm-40 20l20 20h-20v-20zm20 0l20 20h-20v-20z"/><path opacity=".2" fill="#4CADC1" d="M535-175h40v40h-40v-40z"/><path opacity=".2" fill="#268999" d="M535-155l20 20h-20v-20zm0-20l20 20h-20v-20zm20 40l20-20v20h-20zm0-20l20-20v20h-20z"/><path opacity=".2" fill="#4CADC1" d="M415-215h40v40h-40v-40z"/><path opacity=".2" fill="#268999" d="M435-175l20-20v20h-20zm-20 0l20-20v20h-20z"/><path opacity=".2" fill="#1E6B76" d="M455-195l-20-20h20v20zm-20 0l-20-20h20v20z"/><path opacity=".2" fill="#85C4CF" d="M495-335h40v40h-40v-40z"/><circle opacity=".2" fill="#1E6B76" cx="515" cy="-315" r="20"/><circle opacity=".2" fill="#4CADC1" cx="515" cy="-315" r="4"/><path opacity=".2" fill="#85C4CF" d="M335-95h40v40h-40v-40z"/><circle opacity=".2" fill="#4CADC1" cx="355" cy="-75" r="20"/><circle opacity=".2" fill="#85C4CF" cx="355" cy="-75" r="4"/><path opacity=".2" fill="#85C4CF" d="M455-295h40v40h-40v-40z"/><path opacity=".2" fill="#268999" d="M455-295l20 20-20 20v-40zm40 0l-20 20 20 20v-40z"/><path opacity=".2" fill="#85C4CF" d="M455-175h40v40h-40v-40z"/><path opacity=".2" fill="#268999" d="M455-175l20 20-20 20v-40zm40 0l-20 20 20 20v-40z"/><path opacity=".2" fill="#1E6B76" d="M535-335h40v40h-40v-40z"/><path opacity=".2" fill="#268999" d="M535-335l20 20-20 20v-40zm40 0l-20 20 20 20v-40z"/><path opacity=".2" fill="#4CADC1" d="M375-95h40v40h-40v-40z"/><path opacity=".2" fill="#268999" d="M375-95l20 20-20 20v-40zm40 0l-20 20 20 20v-40z"/><path opacity=".2" fill="#4CADC1" d="M495-295h40v40h-40v-40z"/><path opacity=".2" fill="#268999" d="M507-283h16v16h-16v-16z"/><path opacity=".2" fill="#85C4CF" d="M415-95h40v40h-40v-40z"/><path opacity=".2" fill="#4CADC1" d="M427-83h16v16h-16v-16z"/><path opacity=".2" fill="#1E6B76" d="M335-215h40v40h-40v-40z"/><path opacity=".2" fill="#268999" d="M347-203h16v16h-16v-16z"/><path opacity=".2" fill="#1E6B76" d="M295-15h40v40h-40v-40z"/><path opacity=".2" fill="#4CADC1" d="M307-3h16v16h-16v-16z"/><path opacity=".2" fill="#1E6B76" d="M415-55h40v40h-40v-40z"/><path opacity=".2" fill="#4CADC1" d="M435-35c-11 0-20 9-20 20h40c0-11-9-20-20-20z"/><path opacity=".2" fill="#85C4CF" d="M435-23c-4.4 0-8 3.6-8 8h16c0-4.4-3.6-8-8-8z"/><path opacity=".2" fill="#4CADC1" d="M435-35c11 0 20-9 20-20h-40c0 11 9 20 20 20z"/><path opacity=".2" fill="#85C4CF" d="M435-47c4.4 0 8-3.6 8-8h-16c0 4.4 3.6 8 8 8z"/><path opacity=".2" fill="#1E6B76" d="M455-255h40v40h-40v-40z"/><path opacity=".2" fill="#85C4CF" d="M475-235c-11 0-20 8.9-20 20h40c0-11.1-9-20-20-20z"/><path opacity=".2" fill="#4CADC1" d="M475-223c-4.4 0-8 3.6-8 8h16c0-4.4-3.6-8-8-8zm0-12c11 0 20-8.9 20-20h-40c0 11.1 9 20 20 20z"/><path opacity=".2" fill="#85C4CF" d="M475-247c4.4 0 8-3.6 8-8h-16c0 4.4 3.6 8 8 8z"/><path opacity=".2" fill="#4CADC1" d="M335-135h40v40h-40v-40z"/><path opacity=".2" fill="#1E6B76" d="M355-135l-20 20h40l-20-20zm0 20l-20 20h40l-20-20z"/><path opacity=".2" fill="#4CADC1" d="M575-295h40v40h-40v-40z"/><path opacity=".2" fill="#85C4CF" d="M595-295l-20 20h40l-20-20zm0 20l-20 20h40l-20-20z"/><path opacity=".2" fill="#1E6B76" d="M415-135h40v40h-40v-40z"/><circle opacity=".2" fill="#4CADC1" cx="435" cy="-115" r="8"/><path opacity=".2" fill="#4CADC1" d="M495-15h40v40h-40v-40z"/><circle opacity=".2" fill="#85C4CF" cx="515" cy="5" r="8"/><path opacity=".2" fill="#85C4CF" d="M495-135h40v40h-40v-40z"/><path opacity=".2" fill="#268999" d="M515-135v20h-20l20-20z"/><path opacity=".2" fill="#1E6B76" d="M515-115v20l-20-20h20zm0-20v20h20l-20-20z"/><path opacity=".2" fill="#268999" d="M535-115h-20v20l20-20zm-200 60h40v40h-40v-40z"/><path opacity=".2" fill="#4CADC1" d="M355-55v20h-20l20-20z"/><path opacity=".2" fill="#1E6B76" d="M355-35v20l-20-20h20zm0-20v20h20l-20-20z"/><path opacity=".2" fill="#4CADC1" d="M375-35h-20v20l20-20zm160-340h40v40h-40v-40z"/><path opacity=".2" fill="#85C4CF" d="M535-355h40v20h-40v-20z"/><path opacity=".2" fill="#268999" d="M547-363h16v16h-16v-16z"/><path opacity=".2" fill="#4CADC1" d="M455-55h40v40h-40v-40z"/><path opacity=".2" fill="#85C4CF" d="M455-55h20v40h-20v-40z"/><path opacity=".2" fill="#1E6B76" d="M467-43h16v16h-16v-16z"/><path opacity=".2" fill="#85C4CF" d="M535-215h40v40h-40v-40z"/><circle opacity=".2" fill="#1E6B76" cx="555" cy="-195" r="20"/><circle opacity=".2" fill="#4CADC1" cx="555" cy="-195" r="8"/><path opacity=".2" fill="#268999" d="M575-375h40v40h-40v-40z"/><circle opacity=".2" fill="#4CADC1" cx="595" cy="-355" r="12"/></g></svg>