<?xml version="1.0" encoding="utf-8"?>
<!-- Generator: Adobe Illustrator 18.1.0, SVG Export Plug-In . SVG Version: 6.00 Build 0)  -->
<!DOCTYPE svg PUBLIC "-//W3C//DTD SVG 1.1//EN" "http://www.w3.org/Graphics/SVG/1.1/DTD/svg11.dtd">
<svg version="1.1" xmlns="http://www.w3.org/2000/svg" xmlns:xlink="http://www.w3.org/1999/xlink" x="0px" y="0px" width="320px"
	 height="400px" viewBox="295 -375 320 400" enable-background="new 295 -375 320 400" xml:space="preserve">
<g id="Layer_2">
	<rect x="295.5" y="-375" fill="#4DADC1" width="319.5" height="400"/>
</g>
<g id="Layer_1">
	<path opacity="0.2" fill="#268999" d="M335-255h40v40h-40V-255z"/>
	<path opacity="0.2" fill="#4CADC1" d="M335-255v40h40L335-255z"/>
	<path opacity="0.2" fill="#1E6B76" d="M415-175h40v40h-40V-175z"/>
	<path opacity="0.2" fill="#268999" d="M415-175v40h40L415-175z M575-215h40v40h-40V-215z"/>
	<path opacity="0.2" fill="#4CADC1" d="M575-215v40h40L575-215z"/>
	<path opacity="0.2" fill="#1E6B76" d="M455-15h40v40h-40V-15z"/>
	<path opacity="0.2" fill="#4CADC1" d="M495-15h-40v40L495-15z"/>
	<path opacity="0.2" fill="#1E6B76" d="M295-95h40v40h-40V-95z"/>
	<path opacity="0.2" fill="#268999" d="M335-95h-40v40L335-95z"/>
	<path opacity="0.2" fill="#1E6B76" d="M375-255h40v40h-40V-255z"/>
	<path opacity="0.2" fill="#4CADC1" d="M395-255l-20,20l20,20V-255z"/>
	<path opacity="0.2" fill="#268999" d="M395-255l20,20l-20,20V-255z"/>
	<path opacity="0.2" fill="#4CADC1" d="M575-15h40v40h-40V-15z"/>
	<path opacity="0.2" fill="#1E6B76" d="M595-15L575,5l20,20V-15z"/>
	<path opacity="0.2" fill="#268999" d="M595-15l20,20l-20,20V-15z"/>
	<path opacity="0.2" fill="#1E6B76" d="M295-175h40v40h-40V-175z"/>
	<path opacity="0.2" fill="#85C4CF" d="M335-155l-20-20l-20,20H335z"/>
	<path opacity="0.2" fill="#4CADC1" d="M335-155l-20,20l-20-20H335z M415-255h40v40h-40V-255z"/>
	<path opacity="0.2" fill="#85C4CF" d="M415-255v40h40C455-237.1,437.1-255,415-255z"/>
	<path opacity="0.2" fill="#4CADC1" d="M415-235v20h20C435-226.1,426-235,415-235z M575-135h40v40h-40V-135z"/>
	<path opacity="0.2" fill="#85C4CF" d="M615-135h-40v40C597.1-95,615-112.9,615-135z"/>
	<path opacity="0.2" fill="#4CADC1" d="M595-135h-20v20C586-115,595-123.9,595-135z"/>
	<path opacity="0.2" fill="#268999" d="M495-55h40v40h-40V-55z"/>
	<path opacity="0.2" fill="#85C4CF" d="M495-55v40h40C535-37.1,517.1-55,495-55z"/>
	<path opacity="0.2" fill="#268999" d="M495-35v20h20C515-26,506-35,495-35z M535-295h40v40h-40V-295z"/>
	<path opacity="0.2" fill="#85C4CF" d="M535-295v40h40C575-277.1,557.1-295,535-295z"/>
	<path opacity="0.2" fill="#268999" d="M535-275v20h20C555-266,546-275,535-275z M375-135h40v40h-40V-135z"/>
	<path opacity="0.2" fill="#85C4CF" d="M415-95v-40h-40C375-112.9,392.9-95,415-95z"/>
	<path opacity="0.2" fill="#268999" d="M415-115v-20h-20C395-123.9,404-115,415-115z"/>
	<path opacity="0.2" fill="#85C4CF" d="M295-255h40v40h-40V-255z"/>
	<circle opacity="0.2" fill="#268999" cx="315" cy="-235" r="20"/>
	<circle opacity="0.2" fill="#85C4CF" cx="315" cy="-235" r="8"/>
	<path opacity="0.2" fill="#1E6B76" d="M575-55h40v40h-40V-55z"/>
	<circle opacity="0.2" fill="#268999" cx="595" cy="-35" r="20"/>
	<circle opacity="0.2" fill="#1E6B76" cx="595" cy="-35" r="8"/>
	<path opacity="0.2" fill="#4CADC1" d="M455-215h40v40h-40V-215z"/>
	<circle opacity="0.2" fill="#268999" cx="475" cy="-195" r="20"/>
	<circle opacity="0.2" fill="#4CADC1" cx="475" cy="-195" r="8"/>
	<path opacity="0.2" fill="#1E6B76" d="M295-295h40v40h-40V-295z"/>
	<path opacity="0.2" fill="#4CADC1" d="M295-295h20v20h-20V-295z M315-275h20v20h-20V-275z"/>
	<path opacity="0.2" fill="#85C4CF" d="M335-295h40v40h-40V-295z"/>
	<path opacity="0.2" fill="#4CADC1" d="M355-275c-11,0-20,9-20,20C346-255,355-264,355-275z M375-295c-11,0-20,9-20,20
		C366-275,375-284,375-295z M355-275c0-11-9-20-20-20C335-284,344-275,355-275z M375-255c0-11-9-20-20-20C355-264,364-255,375-255z"
		/>
	<path opacity="0.2" fill="#85C4CF" d="M535-15h40v40h-40V-15z"/>
	<path opacity="0.2" fill="#268999" d="M555,5c-11,0-20,9-20,20C546,25,555,16,555,5z M575-15c-11,0-20,9-20,20C566,5,575-4,575-15z
		 M555,5c0-11-9-20-20-20C535-4,544,5,555,5z M575,25c0-11-9-20-20-20C555,16,564,25,575,25z"/>
	<path opacity="0.2" fill="#1E6B76" d="M535-135h40v40h-40V-135z"/>
	<path opacity="0.2" fill="#4CADC1" d="M555-115c-11,0-20,9-20,20C546-95,555-104,555-115z M575-135c-11,0-20,8.9-20,20
		C566-115,575-123.9,575-135z M555-115c0-11.1-9-20-20-20C535-123.9,544-115,555-115z M575-95c0-11-9-20-20-20
		C555-104,564-95,575-95z M415-375h40v40h-40V-375z"/>
	<path opacity="0.2" fill="#268999" d="M435-355c-11,0-20,9-20,20C426-335,435-344,435-355z M455-375c-11,0-20,9-20,20
		C446-355,455-364,455-375z M435-355c0-11-9-20-20-20C415-364,424-355,435-355z M455-335c0-11-9-20-20-20C435-344,444-335,455-335z"
		/>
	<path opacity="0.2" fill="#4CADC1" d="M495-255h40v40h-40V-255z"/>
	<path opacity="0.2" fill="#268999" d="M515-235c-11,0-20,8.9-20,20C506-215,515-223.9,515-235z M535-255c-11,0-20,8.9-20,20
		C526-235,535-243.9,535-255z M515-235c0-11.1-9-20-20-20C495-243.9,504-235,515-235z M535-215c0-11.1-9-20-20-20
		C515-223.9,524-215,535-215z"/>
	<path opacity="0.2" fill="#4CADC1" d="M375-295h40v40h-40V-295z"/>
	<path opacity="0.2" fill="#1E6B76" d="M395-275c11,0,20-9,20-20h-40C375-284,384-275,395-275z"/>
	<path opacity="0.2" fill="#268999" d="M395-275c-11,0-20,9-20,20h40C415-266,406-275,395-275z"/>
	<path opacity="0.2" fill="#4CADC1" d="M575-335h40v40h-40V-335z"/>
	<path opacity="0.2" fill="#1E6B76" d="M595-315c11,0,20-9,20-20h-40C575-324,584-315,595-315z M595-315c-11,0-20,9-20,20h40
		C615-306,606-315,595-315z"/>
	<path opacity="0.2" fill="#4CADC1" d="M455-135h40v40h-40V-135z"/>
	<path opacity="0.2" fill="#268999" d="M475-115c11,0,20-8.9,20-20h-40C455-123.9,464-115,475-115z M475-115c-11,0-20,9-20,20h40
		C495-106,486-115,475-115z M295-215h40v40h-40V-215z"/>
	<path opacity="0.2" fill="#4CADC1" d="M315-195c0,11.1,9,20,20,20v-40C324-215,315-206.1,315-195z M315-195c0-11.1-9-20-20-20v40
		C306-175,315-183.9,315-195z"/>
	<path opacity="0.2" fill="#268999" d="M575-175h40v40h-40V-175z"/>
	<path opacity="0.2" fill="#1E6B76" d="M595-155c0,11.1,9,20,20,20v-40C604-175,595-166.1,595-155z M595-155c0-11.1-9-20-20-20v40
		C586-135,595-143.9,595-155z"/>
	<path opacity="0.2" fill="#85C4CF" d="M335-15h40v40h-40V-15z"/>
	<path opacity="0.2" fill="#268999" d="M355,5c0,11,9,20,20,20v-40C364-15,355-6,355,5z M355,5c0-11-9-20-20-20v40
		C346,25,355,16,355,5z M495-95h40v40h-40V-95z"/>
	<path opacity="0.2" fill="#4CADC1" d="M515-75c0,11,9,20,20,20v-40C524-95,515-86,515-75z M515-75c0-11-9-20-20-20v40
		C506-55,515-64,515-75z"/>
	<path opacity="0.2" fill="#1E6B76" d="M415-295h40v40h-40V-295z"/>
	<circle opacity="0.2" fill="#85C4CF" cx="435" cy="-275" r="20"/>
	<path opacity="0.2" fill="#4CADC1" d="M435-295c-11,0-20,9-20,20h20V-295z M455-275h-20v20C446-255,455-264,455-275z M375-15h40v40
		h-40V-15z"/>
	<circle opacity="0.2" fill="#85C4CF" cx="395" cy="5" r="20"/>
	<path opacity="0.2" fill="#268999" d="M395-15c-11,0-20,9-20,20h20V-15z M415,5h-20v20C406,25,415,16,415,5z"/>
	<path opacity="0.2" fill="#85C4CF" d="M295-135h40v40h-40V-135z"/>
	<circle opacity="0.2" fill="#268999" cx="315" cy="-115" r="20"/>
	<path opacity="0.2" fill="#4CADC1" d="M315-135c-11,0-20,8.9-20,20h20V-135z M335-115h-20v20C326-95,335-104,335-115z"/>
	<path opacity="0.2" fill="#1E6B76" d="M335-335h40v40h-40V-335z"/>
	<circle opacity="0.2" fill="#4CADC1" cx="355" cy="-315" r="20"/>
	<circle opacity="0.2" fill="#1E6B76" cx="355" cy="-315" r="12"/>
	<circle opacity="0.2" fill="#4CADC1" cx="355" cy="-315" r="4"/>
	<path opacity="0.2" fill="#4CADC1" d="M375-175h40v40h-40V-175z"/>
	<circle opacity="0.2" fill="#1E6B76" cx="395" cy="-155" r="20"/>
	<circle opacity="0.2" fill="#4CADC1" cx="395" cy="-155" r="12"/>
	<circle opacity="0.2" fill="#1E6B76" cx="395" cy="-155" r="4"/>
	<path opacity="0.2" fill="#4CADC1" d="M375-335h40v40h-40V-335z"/>
	<path opacity="0.2" fill="#268999" d="M415-335l-40,40h40V-335z"/>
	<path opacity="0.2" fill="#85C4CF" d="M415-335h40v40h-40V-335z"/>
	<path opacity="0.2" fill="#4CADC1" d="M415-335c22.1,0,40,17.9,40,40C432.9-295,415-312.9,415-335z"/>
	<path opacity="0.2" fill="#268999" d="M295-335h40v40h-40V-335z"/>
	<path opacity="0.2" fill="#4CADC1" d="M315-315c0,11,9,20,20,20v-40C324-335,315-326,315-315z M315-315c0-11-9-20-20-20v40
		C306-295,315-304,315-315z"/>
	<path opacity="0.2" fill="#85C4CF" d="M375-375h40v40h-40V-375z"/>
	<path opacity="0.2" fill="#268999" d="M375-375h20v20h-20V-375z M395-355h20v20h-20V-355z"/>
	<path opacity="0.2" fill="#4CADC1" d="M535-55h40v40h-40V-55z"/>
	<path opacity="0.2" fill="#1E6B76" d="M535-55h20v20h-20V-55z M555-35h20v20h-20V-35z"/>
	<path opacity="0.2" fill="#85C4CF" d="M495-215h40v40h-40V-215z"/>
	<path opacity="0.2" fill="#268999" d="M495-215h20v20h-20V-215z M515-195h20v20h-20V-195z"/>
	<path opacity="0.2" fill="#4CADC1" d="M335-375h40v40h-40V-375z"/>
	<path opacity="0.2" fill="#85C4CF" d="M375-375c-22.1,0-40,17.9-40,40C357.1-335,375-352.9,375-375z"/>
	<path opacity="0.2" fill="#1E6B76" d="M375-55h40v40h-40V-55z"/>
	<path opacity="0.2" fill="#85C4CF" d="M415-55c-22.1,0-40,17.9-40,40C397.1-15,415-32.9,415-55z"/>
	<path opacity="0.2" fill="#4CADC1" d="M495-175h40v40h-40V-175z"/>
	<path opacity="0.2" fill="#85C4CF" d="M535-135c0-22.1-17.9-40-40-40C495-152.9,512.9-135,535-135z"/>
	<path opacity="0.2" fill="#1E6B76" d="M295-375h40v40h-40V-375z"/>
	<path opacity="0.2" fill="#268999" d="M295-375c0,22.1,17.9,40,40,40v-40H295z"/>
	<path opacity="0.2" fill="#1E6B76" d="M535-255h40v40h-40V-255z"/>
	<path opacity="0.2" fill="#4CADC1" d="M535-255c0,22.1,17.9,40,40,40v-40H535z M455-95h40v40h-40V-95z"/>
	<path opacity="0.2" fill="#1E6B76" d="M455-95c0,22.1,17.9,40,40,40v-40H455z"/>
	<path opacity="0.2" fill="#268999" d="M335-175h40v40h-40V-175z"/>
	<path opacity="0.2" fill="#85C4CF" d="M375-135c0-22.1-17.9-40-40-40v40H375z"/>
	<path opacity="0.2" fill="#268999" d="M415-15h40v40h-40V-15z"/>
	<path opacity="0.2" fill="#85C4CF" d="M455,25c0-22.1-17.9-40-40-40v40H455z"/>
	<path opacity="0.2" fill="#1E6B76" d="M455-375h40v40h-40V-375z"/>
	<path opacity="0.2" fill="#85C4CF" d="M495-375c-22.1,0-40,17.9-40,40h40V-375z"/>
	<path opacity="0.2" fill="#4CADC1" d="M495-355c-11,0-20,9-20,20h20V-355z"/>
	<path opacity="0.2" fill="#268999" d="M495-375h40v40h-40V-375z"/>
	<path opacity="0.2" fill="#1E6B76" d="M495-355c11,0,20-9,20-20h-20V-355z M535-355c-11,0-20,9-20,20h20V-355z M515-375
		c0,11,9,20,20,20v-20H515z M495-355v20h20C515-346,506-355,495-355z"/>
	<path opacity="0.2" fill="#4CADC1" d="M375-215h40v40h-40V-215z"/>
	<path opacity="0.2" fill="#85C4CF" d="M375-195c11,0,20-8.9,20-20h-20V-195z M415-195c-11,0-20,8.9-20,20h20V-195z M395-215
		c0,11.1,9,20,20,20v-20H395z M375-195v20h20C395-186.1,386-195,375-195z"/>
	<path opacity="0.2" fill="#4CADC1" d="M575-255h40v40h-40V-255z"/>
	<path opacity="0.2" fill="#85C4CF" d="M575-235c11,0,20-8.9,20-20h-20V-235z M615-235c-11,0-20,8.9-20,20h20V-235z M595-255
		c0,11.1,9,20,20,20v-20H595z M575-235v20h20C595-226.1,586-235,575-235z"/>
	<path opacity="0.2" fill="#1E6B76" d="M295-55h40v40h-40V-55z"/>
	<path opacity="0.2" fill="#85C4CF" d="M295-35c11,0,20-9,20-20h-20V-35z M335-35c-11,0-20,9-20,20h20V-35z M315-55c0,11,9,20,20,20
		v-20H315z M295-35v20h20C315-26,306-35,295-35z"/>
	<path opacity="0.2" fill="#268999" d="M535-95h40v40h-40V-95z"/>
	<path opacity="0.2" fill="#85C4CF" d="M535-75c11,0,20-9,20-20h-20V-75z M575-75c-11,0-20,9-20,20h20V-75z M555-95c0,11,9,20,20,20
		v-20H555z M535-75v20h20C555-66,546-75,535-75z"/>
	<path opacity="0.2" fill="#4CADC1" d="M455-335h40v40h-40V-335z"/>
	<path opacity="0.2" fill="#268999" d="M475-335l-20,20v-20H475z M495-335l-20,20v-20H495z M455-315l20,20h-20V-315z M475-315l20,20
		h-20V-315z"/>
	<path opacity="0.2" fill="#4CADC1" d="M575-95h40v40h-40V-95z"/>
	<path opacity="0.2" fill="#268999" d="M595-95l-20,20v-20H595z M615-95l-20,20v-20H615z M575-75l20,20h-20V-75z M595-75l20,20h-20
		V-75z"/>
	<path opacity="0.2" fill="#4CADC1" d="M535-175h40v40h-40V-175z"/>
	<path opacity="0.2" fill="#268999" d="M535-155l20,20h-20V-155z M535-175l20,20h-20V-175z M555-135l20-20v20H555z M555-155l20-20
		v20H555z"/>
	<path opacity="0.2" fill="#4CADC1" d="M415-215h40v40h-40V-215z"/>
	<path opacity="0.2" fill="#268999" d="M435-175l20-20v20H435z M415-175l20-20v20H415z"/>
	<path opacity="0.2" fill="#1E6B76" d="M455-195l-20-20h20V-195z M435-195l-20-20h20V-195z"/>
	<path opacity="0.2" fill="#85C4CF" d="M495-335h40v40h-40V-335z"/>
	<circle opacity="0.2" fill="#1E6B76" cx="515" cy="-315" r="20"/>
	<circle opacity="0.2" fill="#4CADC1" cx="515" cy="-315" r="4"/>
	<path opacity="0.2" fill="#85C4CF" d="M335-95h40v40h-40V-95z"/>
	<circle opacity="0.2" fill="#4CADC1" cx="355" cy="-75" r="20"/>
	<circle opacity="0.2" fill="#85C4CF" cx="355" cy="-75" r="4"/>
	<path opacity="0.2" fill="#85C4CF" d="M455-295h40v40h-40V-295z"/>
	<path opacity="0.2" fill="#268999" d="M455-295l20,20l-20,20V-295z M495-295l-20,20l20,20V-295z"/>
	<path opacity="0.2" fill="#85C4CF" d="M455-175h40v40h-40V-175z"/>
	<path opacity="0.2" fill="#268999" d="M455-175l20,20l-20,20V-175z M495-175l-20,20l20,20V-175z"/>
	<path opacity="0.2" fill="#1E6B76" d="M535-335h40v40h-40V-335z"/>
	<path opacity="0.2" fill="#268999" d="M535-335l20,20l-20,20V-335z M575-335l-20,20l20,20V-335z"/>
	<path opacity="0.2" fill="#4CADC1" d="M375-95h40v40h-40V-95z"/>
	<path opacity="0.2" fill="#268999" d="M375-95l20,20l-20,20V-95z M415-95l-20,20l20,20V-95z"/>
	<path opacity="0.2" fill="#4CADC1" d="M495-295h40v40h-40V-295z"/>
	<path opacity="0.2" fill="#268999" d="M507-283h16v16h-16V-283z"/>
	<path opacity="0.2" fill="#85C4CF" d="M415-95h40v40h-40V-95z"/>
	<path opacity="0.2" fill="#4CADC1" d="M427-83h16v16h-16V-83z"/>
	<path opacity="0.2" fill="#1E6B76" d="M335-215h40v40h-40V-215z"/>
	<path opacity="0.2" fill="#268999" d="M347-203h16v16h-16V-203z"/>
	<path opacity="0.2" fill="#1E6B76" d="M295-15h40v40h-40V-15z"/>
	<path opacity="0.2" fill="#4CADC1" d="M307-3h16v16h-16V-3z"/>
	<path opacity="0.2" fill="#1E6B76" d="M415-55h40v40h-40V-55z"/>
	<path opacity="0.2" fill="#4CADC1" d="M435-35c-11,0-20,9-20,20h40C455-26,446-35,435-35z"/>
	<path opacity="0.2" fill="#85C4CF" d="M435-23c-4.4,0-8,3.6-8,8h16C443-19.4,439.4-23,435-23z"/>
	<path opacity="0.2" fill="#4CADC1" d="M435-35c11,0,20-9,20-20h-40C415-44,424-35,435-35z"/>
	<path opacity="0.2" fill="#85C4CF" d="M435-47c4.4,0,8-3.6,8-8h-16C427-50.6,430.6-47,435-47z"/>
	<path opacity="0.2" fill="#1E6B76" d="M455-255h40v40h-40V-255z"/>
	<path opacity="0.2" fill="#85C4CF" d="M475-235c-11,0-20,8.9-20,20h40C495-226.1,486-235,475-235z"/>
	<path opacity="0.2" fill="#4CADC1" d="M475-223c-4.4,0-8,3.6-8,8h16C483-219.4,479.4-223,475-223z M475-235c11,0,20-8.9,20-20h-40
		C455-243.9,464-235,475-235z"/>
	<path opacity="0.2" fill="#85C4CF" d="M475-247c4.4,0,8-3.6,8-8h-16C467-250.6,470.6-247,475-247z"/>
	<path opacity="0.2" fill="#4CADC1" d="M335-135h40v40h-40V-135z"/>
	<path opacity="0.2" fill="#1E6B76" d="M355-135l-20,20h40L355-135z M355-115l-20,20h40L355-115z"/>
	<path opacity="0.2" fill="#4CADC1" d="M575-295h40v40h-40V-295z"/>
	<path opacity="0.2" fill="#85C4CF" d="M595-295l-20,20h40L595-295z M595-275l-20,20h40L595-275z"/>
	<path opacity="0.2" fill="#1E6B76" d="M415-135h40v40h-40V-135z"/>
	<circle opacity="0.2" fill="#4CADC1" cx="435" cy="-115" r="8"/>
	<path opacity="0.2" fill="#4CADC1" d="M495-15h40v40h-40V-15z"/>
	<circle opacity="0.2" fill="#85C4CF" cx="515" cy="5" r="8"/>
	<path opacity="0.2" fill="#85C4CF" d="M495-135h40v40h-40V-135z"/>
	<path opacity="0.2" fill="#268999" d="M515-135v20h-20L515-135z"/>
	<path opacity="0.2" fill="#1E6B76" d="M515-115v20l-20-20H515z M515-135v20h20L515-135z"/>
	<path opacity="0.2" fill="#268999" d="M535-115h-20v20L535-115z M335-55h40v40h-40V-55z"/>
	<path opacity="0.2" fill="#4CADC1" d="M355-55v20h-20L355-55z"/>
	<path opacity="0.2" fill="#1E6B76" d="M355-35v20l-20-20H355z M355-55v20h20L355-55z"/>
	<path opacity="0.2" fill="#4CADC1" d="M375-35h-20v20L375-35z M535-375h40v40h-40V-375z"/>
	<path opacity="0.2" fill="#85C4CF" d="M535-355h40v20h-40V-355z"/>
	<path opacity="0.2" fill="#268999" d="M547-363h16v16h-16V-363z"/>
	<path opacity="0.2" fill="#4CADC1" d="M455-55h40v40h-40V-55z"/>
	<path opacity="0.2" fill="#85C4CF" d="M455-55h20v40h-20V-55z"/>
	<path opacity="0.2" fill="#1E6B76" d="M467-43h16v16h-16V-43z"/>
	<path opacity="0.2" fill="#85C4CF" d="M535-215h40v40h-40V-215z"/>
	<circle opacity="0.2" fill="#1E6B76" cx="555" cy="-195" r="20"/>
	<circle opacity="0.2" fill="#4CADC1" cx="555" cy="-195" r="8"/>
	<path opacity="0.2" fill="#268999" d="M575-375h40v40h-40V-375z"/>
	<circle opacity="0.2" fill="#4CADC1" cx="595" cy="-355" r="12"/>
</g>
</svg>
