<?xml version="1.0" encoding="utf-8"?>
<!-- Generator: Adobe Illustrator 16.0.0, SVG Export Plug-In . SVG Version: 6.00 Build 0)  -->
<!DOCTYPE svg PUBLIC "-//W3C//DTD SVG 1.1//EN" "http://www.w3.org/Graphics/SVG/1.1/DTD/svg11.dtd">
<svg version="1.1" xmlns="http://www.w3.org/2000/svg" xmlns:xlink="http://www.w3.org/1999/xlink" x="0px" y="0px" width="500px"
	 height="500px" viewBox="0 0 500 500" enable-background="new 0 0 500 500" xml:space="preserve">
<g id="Background">
	<rect width="500" height="500"/>
</g>
<g id="Layer_1">
	<g>
		<g>
			<path fill="#FFFFFF" d="M401.43,247.447L282.025,128.05c-1.627-1.635-3.744-2.435-5.854-2.435c-2.131,0-4.248,0.8-5.865,2.435
				l-0.146,0.133c-1.553,1.558-2.434,3.669-2.434,5.862v33.043c0,2.197,0.881,4.301,2.434,5.859l80.359,80.358l-80.359,80.37
				c-1.553,1.552-2.434,3.665-2.434,5.843v33.066c0,2.177,0.881,4.296,2.434,5.844l0.146,0.146c1.543,1.553,3.662,2.435,5.865,2.435
				c2.191,0,4.289-0.882,5.854-2.435l119.416-119.402"/>
			<path fill="#FFFFFF" d="M98.559,247.447l119.41-119.397c1.608-1.635,3.729-2.435,5.854-2.435c2.115,0,4.248,0.8,5.869,2.435
				l0.144,0.133c1.551,1.558,2.422,3.669,2.422,5.862v33.043c0,2.197-0.871,4.301-2.422,5.859l-80.359,80.358l80.359,80.37
				c1.551,1.552,2.422,3.665,2.422,5.843v33.066c0,2.177-0.871,4.296-2.422,5.844l-0.144,0.146
				c-1.557,1.553-3.664,2.435-5.869,2.435c-2.198,0-4.301-0.882-5.864-2.435l-119.4-119.402"/>
		</g>
		<path fill="#FFFFFF" d="M250,8.093C116.398,8.093,8.093,116.398,8.093,250S116.398,491.907,250,491.907
			c133.602,0,241.907-108.306,241.907-241.907S383.602,8.093,250,8.093 M250,467.41c-120.073,0-217.41-97.338-217.41-217.41
			c0-120.073,97.337-217.41,217.41-217.41c120.072,0,217.41,97.337,217.41,217.41C467.41,370.072,370.072,467.41,250,467.41"/>
	</g>
</g>
</svg>
