<?xml version="1.0" encoding="utf-8"?>
<!-- Generator: Adobe Illustrator 16.0.0, SVG Export Plug-In . SVG Version: 6.00 Build 0)  -->
<!DOCTYPE svg PUBLIC "-//W3C//DTD SVG 1.1//EN" "http://www.w3.org/Graphics/SVG/1.1/DTD/svg11.dtd">
<svg version="1.1" id="Layer_1" xmlns="http://www.w3.org/2000/svg" xmlns:xlink="http://www.w3.org/1999/xlink" x="0px" y="0px"
	 width="400px" height="400px" viewBox="0 0 400 400" enable-background="new 0 0 400 400" xml:space="preserve" fill="#4dadc1">
<path d="M200,7.5C93.686,7.5,7.5,93.686,7.5,200S93.686,392.5,200,392.5S392.5,306.314,392.5,200S306.314,7.5,200,7.5z M200,361.974
	c-89.456,0-161.974-72.519-161.974-161.974c0-89.456,72.518-161.974,161.974-161.974c89.456,0,161.974,72.518,161.974,161.974
	C361.974,289.455,289.456,361.974,200,361.974z"/>
<g>
	<path d="M320.632,204.718l0.08-0.08v-0.01c2.521-2.609,2.528-6.73-0.009-9.268c0,0-0.001,0-0.001,0l0,0l-94.484-94.478
		c-1.287-1.294-2.962-1.927-4.631-1.927c-1.686,0-3.361,0.632-4.641,1.927l-0.117,0.105c-1.228,1.233-1.925,2.903-1.925,4.639
		v26.146c0,1.738,0.697,3.402,1.925,4.636l63.588,63.587l-63.588,63.596c-1.228,1.228-1.925,2.9-1.925,4.624v26.165
		c0,1.722,0.697,3.398,1.925,4.623l0.117,0.117c1.221,1.228,2.897,1.927,4.641,1.927c1.734,0,3.394-0.699,4.631-1.927
		L320.632,204.718L320.632,204.718L320.632,204.718z"/>
	<path d="M81.663,204.718l-0.08-0.08v-0.01c-2.521-2.609-2.528-6.73,0.008-9.268c0,0,0,0,0,0h0l94.483-94.478
		c1.288-1.294,2.963-1.927,4.632-1.927c1.686,0,3.361,0.632,4.641,1.927l0.116,0.105c1.228,1.233,1.925,2.903,1.925,4.639v26.146
		c0,1.738-0.697,3.402-1.925,4.636l-63.587,63.587l63.587,63.596c1.229,1.228,1.926,2.9,1.925,4.624l0,26.165
		c0,1.722-0.697,3.398-1.925,4.623l-0.116,0.117c-1.221,1.228-2.897,1.927-4.641,1.927c-1.734,0-3.395-0.699-4.632-1.927
		L81.663,204.718L81.663,204.718L81.663,204.718z"/>
</g>
</svg>
