<?xml version="1.0" encoding="UTF-8" standalone="no"?>
<svg width="34px" height="34px" viewBox="0 0 34 34" version="1.1" xmlns="http://www.w3.org/2000/svg" xmlns:xlink="http://www.w3.org/1999/xlink" xmlns:sketch="http://www.bohemiancoding.com/sketch/ns">
    <!-- Generator: Sketch 3.1.1 (8761) - http://www.bohemiancoding.com/sketch -->
    <title>Artboard 1</title>
    <desc>Created with Sketch.</desc>
    <defs></defs>
    <g id="Page-1" stroke="none" stroke-width="1" fill="none" fill-rule="evenodd" sketch:type="MSPage">
        <g id="Artboard-1" sketch:type="MSArtboardGroup" fill="#4CADC1">
            <path d="M18.9,7.9 L18.9,12.3 L23.8,16.9 L18.9,21.5 L18.9,25.9 L28.4,16.8 L18.9,7.9 L18.9,7.9 Z M15.2,21.6 L10.2,17 L15.2,12.4 L15.2,8 L5.6,17.1 L15.2,26.2 L15.2,21.6 L15.2,21.6 Z M17,0 C7.6,0 0,7.6 0,17 C0,26.4 7.6,34 17,34 C26.4,34 34,26.4 34,17 C34,7.6 26.4,0 17,0 L17,0 Z M17,30.9 C9.3,30.9 3.1,24.7 3.1,17 C3.1,9.3 9.3,3.1 17,3.1 C24.7,3.1 30.9,9.3 30.9,17 C30.9,24.7 24.7,30.9 17,30.9 L17,30.9 Z" id="Shape" sketch:type="MSShapeGroup"></path>
        </g>
    </g>
</svg>