<?xml version="1.0" encoding="utf-8"?>
<!-- Generator: Adobe Illustrator 20.0.0, SVG Export Plug-In . SVG Version: 6.00 Build 0)  -->
<!DOCTYPE svg PUBLIC "-//W3C//DTD SVG 1.1//EN" "http://www.w3.org/Graphics/SVG/1.1/DTD/svg11.dtd">
<svg version="1.1" id="Layer_1" xmlns="http://www.w3.org/2000/svg" xmlns:xlink="http://www.w3.org/1999/xlink" x="0px" y="0px"
	 viewBox="0 0 491 505" style="enable-background:new 0 0 491 505;" xml:space="preserve">
<style type="text/css">
	.st0{fill:#231F20;}
	.st1{fill:#5190CC;}
</style>
<path class="st0" d="M466.6,89.2h-38.7c-6.6,0-12,5.4-12,12v148.6l-3.6-4.7c-25.8-34-57.8-50.5-97.7-50.5
	c-66.2,0-133.1,51.2-133.1,149.1v1.1c0,96.9,68.6,149.1,133.1,149.1c40.1,0,72-17.6,97.7-53.8l3.6-5.1v40.8c0,6.6,5.4,12,12,12h38.7
	c6.6,0,12-5.4,12-12V101.2C478.6,94.6,473.3,89.2,466.6,89.2z M244.8,344.9v-1.1c0-55.2,36.1-95.2,85.8-95.2
	c49.2,0,86.4,40.9,86.4,95.2v1.1c0,53.4-37.9,95.2-86.4,95.2C281.7,440.1,244.8,399.1,244.8,344.9z"/>
<g>
	<path class="st1" d="M98.8,276.3c-1.4-16.7-1-37,7-64.7c6.7-22.4,22.5-47,41-64.4c18.1-17,42.5-30.2,69.3-36.4
		c25.3-5.8,46.7-5.3,62.7-3.5c2.3,0.1,4,1.1,5,2.1c1.7,1.8,2,5.7,1,6.6c-0.8,0.8-3,1.6-5.1,1.8c-35,2.2-72.7,21.2-108.7,55.1
		c-33.2,31.2-56.8,70.7-61.3,105c-0.3,2.1-1.1,4-2.1,5c-1,0.9-5.1,0.6-6.7-1.2C99.8,280.5,98.9,278.8,98.8,276.3z"/>
</g>
<g>
	<path class="st1" d="M10.5,236.4c-1.9-22.2-1.4-49.2,9.3-86.2c8.9-29.8,30-62.7,54.6-85.8c24.1-22.7,56.6-40.3,92.3-48.4
		c33.7-7.7,62.2-7.1,83.5-4.7c3.1,0.1,5.3,1.4,6.6,2.8c2.2,2.4,2.6,7.5,1.3,8.8c-1.1,1-3.9,2.2-6.8,2.4
		c-46.7,3-96.9,28.2-144.8,73.4c-44.2,41.6-75.7,94.2-81.7,139.8c-0.3,2.8-1.4,5.4-2.8,6.6c-1.3,1.2-6.7,0.8-9-1.6
		C11.8,242.1,10.6,239.8,10.5,236.4z"/>
</g>
</svg>
