<?xml version="1.0" encoding="utf-8"?>
<!-- Generator: Adobe Illustrator 18.1.1, SVG Export Plug-In . SVG Version: 6.00 Build 0)  -->
<svg version="1.1" xmlns="http://www.w3.org/2000/svg" xmlns:xlink="http://www.w3.org/1999/xlink" x="0px" y="0px"
	 viewBox="-623.6 382.4 37.2 37.2" enable-background="new -623.6 382.4 37.2 37.2" xml:space="preserve">
<g id="Layer_1" xmlns:sketch="http://www.bohemiancoding.com/sketch/ns">
	<title>Artboard 1</title>
	<desc>Created with Sketch.</desc>
	<g id="Page-1" sketch:type="MSPage">
		<g id="Artboard-1" sketch:type="MSArtboardGroup">
			<path id="Shape" sketch:type="MSShapeGroup" fill="#4DADC1" d="M-605,384c-9.4,0-17,7.6-17,17s7.6,17,17,17s17-7.6,17-17
				S-595.6,384-605,384L-605,384z M-605,414.9c-7.7,0-13.9-6.2-13.9-13.9s6.2-13.9,13.9-13.9s13.9,6.2,13.9,13.9
				S-597.3,414.9-605,414.9L-605,414.9z"/>
		</g>
	</g>
</g>
<g id="Layer_2">
	<circle fill="#72C297" cx="-605" cy="385.5" r="3"/>
	<circle fill="#72C297" cx="-605" cy="416.5" r="3"/>
	<circle fill="#72C297" cx="-620.5" cy="401.1" r="3"/>
	<circle fill="#72C297" cx="-589.5" cy="401.1" r="3"/>
	<circle fill="#72C297" cx="-616" cy="412" r="3"/>
	<circle fill="#72C297" cx="-594" cy="390.1" r="3"/>
	<circle fill="#72C297" cx="-616" cy="390.1" r="3"/>
	<circle fill="#72C297" cx="-594" cy="412" r="3"/>
</g>
</svg>
