<?xml version="1.0" encoding="utf-8"?>
<!-- Generator: Adobe Illustrator 18.1.1, SVG Export Plug-In . SVG Version: 6.00 Build 0)  -->
<svg version="1.1" id="Layer_1" xmlns="http://www.w3.org/2000/svg" xmlns:xlink="http://www.w3.org/1999/xlink" x="0px" y="0px"
	 viewBox="117 -240 1200 1200" enable-background="new 117 -240 1200 1200" xml:space="preserve">
<polygon fill="none" stroke="#000000" stroke-width="5" stroke-miterlimit="10" points="482.6,754.6 256.1,362.3 482.6,-30 
	935.9,-30 1162.4,362.3 935.9,754.6 "/>
<line fill="none" stroke="#000000" stroke-width="5" stroke-miterlimit="10" x1="485" y1="-31.6" x2="933.4" y2="753.1"/>
<line fill="none" stroke="#000000" stroke-width="5" stroke-miterlimit="10" x1="933.4" y1="-31.6" x2="485" y2="753.1"/>
<line fill="none" stroke="#000000" stroke-width="5" stroke-miterlimit="10" x1="709.2" y1="-28.5" x2="709.2" y2="756.2"/>
<line fill="none" stroke="#000000" stroke-width="5" stroke-miterlimit="10" x1="371" y1="163.1" x2="1047.5" y2="561.2"/>
<line fill="none" stroke="#000000" stroke-width="5" stroke-miterlimit="10" x1="370.2" y1="555.1" x2="1048.2" y2="163.1"/>
<line fill="none" stroke="#000000" stroke-width="5" stroke-miterlimit="10" x1="255.6" y1="362.3" x2="1162.9" y2="362.3"/>
<ellipse fill="#FFFFFF" stroke="#000000" stroke-width="5" stroke-miterlimit="10" cx="709.2" cy="362.3" rx="223.1" ry="221.3"/>
<path fill="none" stroke="#000000" stroke-width="5" stroke-miterlimit="10" d="M710.3-28.5c-69,0-224.4,190-224.4,390.8
	c0,220.1,167.7,391.9,224.4,391.9c61.9,0,222.2-181,222.2-391.9C932.5,165.5,784.2-28.5,710.3-28.5z"/>
<path fill="#FFFFFF" stroke="#000000" stroke-width="5" stroke-miterlimit="10" d="M259.3,362.3c0,41.4,276.8,221.3,448.1,221.3
	c157.9,0,451.8-192.2,451.8-221.3c0-32.2-286.6-221.3-451.8-221.3C538.2,141,259.3,327.1,259.3,362.3z"/>
<g>
	<path d="M591.1,358c0-64.4,53-116.2,118-116.2c65.3,0,118.3,51.8,118.3,116.2c0,64.1-53,115.9-118.3,115.9
		C644.1,473.9,591.1,422.1,591.1,358z M758.7,358c0-29.1-22.1-52.4-49.7-52.4c-27.3,0-49.3,23.3-49.3,52.4s22.1,52.4,49.3,52.4
		C736.7,410.4,758.7,387.1,758.7,358z"/>
</g>
</svg>
