<?xml version="1.0" encoding="utf-8"?>
<!-- Generator: Adobe Illustrator 18.1.1, SVG Export Plug-In . SVG Version: 6.00 Build 0)  -->
<svg version="1.1" id="Layer_1" xmlns="http://www.w3.org/2000/svg" xmlns:xlink="http://www.w3.org/1999/xlink" x="0px" y="0px"
	 viewBox="0 0 301.5 261" enable-background="new 0 0 301.5 261" xml:space="preserve">
<polygon fill="none" stroke="#000000" stroke-width="5" stroke-miterlimit="10" points="76.8,258.5 2.9,130.5 76.8,2.5 224.7,2.5 
	298.6,130.5 224.7,258.5 "/>
<line fill="none" stroke="#000000" stroke-width="5" stroke-miterlimit="10" x1="76.8" y1="2" x2="223.1" y2="258"/>
<line fill="none" stroke="#000000" stroke-width="5" stroke-miterlimit="10" x1="223.1" y1="2" x2="76.8" y2="258"/>
<line fill="none" stroke="#000000" stroke-width="5" stroke-miterlimit="10" x1="150.6" y1="3" x2="150.6" y2="259"/>
<line fill="none" stroke="#000000" stroke-width="5" stroke-miterlimit="10" x1="40.4" y1="65.5" x2="261.1" y2="195.4"/>
<line fill="none" stroke="#000000" stroke-width="5" stroke-miterlimit="10" x1="39.9" y1="193.4" x2="261.1" y2="65.5"/>
<line fill="none" stroke="#000000" stroke-width="5" stroke-miterlimit="10" x1="3.1" y1="130.5" x2="299.1" y2="130.5"/>
<ellipse fill="#FFFFFF" stroke="#000000" stroke-width="5" stroke-miterlimit="10" cx="150.2" cy="130.5" rx="72.8" ry="72.2"/>
<path fill="none" stroke="#000000" stroke-width="5" stroke-miterlimit="10" d="M150.6,3c-22.5,0-73.2,62-73.2,127.5
	c0,71.8,54.7,128.5,73.2,128.5c20.2,0,72.5-59.7,72.5-128.5C223.1,66.3,174.7,3,150.6,3z"/>
<path fill="#FFFFFF" stroke="#000000" stroke-width="5" stroke-miterlimit="10" d="M4.1,130.5c0,13.5,90.3,72.2,146.2,72.2
	c51.5,0,147.4-62.7,147.4-72.2c0-10.5-93.5-72.2-147.4-72.2C95.1,58.3,4.1,119,4.1,130.5z"/>
<g>
	<path d="M111.4,129.1c0-21,17.3-37.9,38.5-37.9c21.3,0,38.6,16.9,38.6,37.9c0,20.9-17.3,37.8-38.6,37.8
		C128.7,166.9,111.4,150,111.4,129.1z M166.1,129.1c0-9.5-7.2-17.1-16.2-17.1c-8.9,0-16.1,7.6-16.1,17.1c0,9.5,7.2,17.1,16.1,17.1
		C158.9,146.2,166.1,138.6,166.1,129.1z"/>
</g>
</svg>
