<?xml version="1.0" encoding="utf-8"?>
<!-- Generator: Adobe Illustrator 18.1.1, SVG Export Plug-In . SVG Version: 6.00 Build 0)  -->
<!DOCTYPE svg PUBLIC "-//W3C//DTD SVG 1.1//EN" "http://www.w3.org/Graphics/SVG/1.1/DTD/svg11.dtd">
<svg version="1.1" id="Layer_1" xmlns="http://www.w3.org/2000/svg" xmlns:xlink="http://www.w3.org/1999/xlink" x="0px" y="0px"
	 width="16px" height="16px" viewBox="0 0 16 16" enable-background="new 0 0 16 16" xml:space="preserve">
<g>
	<polygon fill="#020202" points="5.1,1.3 3,1.1 0.9,0.8 1.2,2.9 1.4,5 2.4,4 5.8,7.3 7.4,5.7 4.1,2.3 	"/>
	<polygon fill="#020202" points="10.2,7.3 13.6,4 14.6,5 14.8,2.9 15.1,0.8 13,1.1 10.9,1.3 11.9,2.3 8.6,5.7 	"/>
	<polygon fill="#020202" points="5.8,8.7 2.4,12 1.4,11 1.2,13.1 0.9,15.2 3,14.9 5.1,14.7 4.1,13.7 7.4,10.3 	"/>
	<polygon fill="#020202" points="14.6,11 13.6,12 10.2,8.7 8.6,10.3 11.9,13.7 10.9,14.7 13,14.9 15.1,15.2 14.8,13.1 	"/>
</g>
</svg>
