<?xml version="1.0" encoding="utf-8"?>
<!-- Generator: Adobe Illustrator 18.1.1, SVG Export Plug-In . SVG Version: 6.00 Build 0)  -->
<!DOCTYPE svg PUBLIC "-//W3C//DTD SVG 1.1//EN" "http://www.w3.org/Graphics/SVG/1.1/DTD/svg11.dtd">
<svg version="1.1" id="Layer_1" xmlns="http://www.w3.org/2000/svg" xmlns:xlink="http://www.w3.org/1999/xlink" x="0px" y="0px"
	 width="16px" height="16px" viewBox="0 0 16 16" enable-background="new 0 0 16 16" xml:space="preserve">
<g>
	<polygon fill="#020202" points="3,6.4 5,6.7 7,6.9 6.7,4.9 6.5,2.9 5.5,3.9 2.5,0.8 0.9,2.3 4,5.4 	"/>
	<polygon fill="#020202" points="13,6.4 12,5.4 15.1,2.3 13.6,0.8 10.5,3.9 9.5,2.9 9.3,4.9 9,6.9 11,6.7 	"/>
	<polygon fill="#020202" points="13,9.7 11,9.3 9,9.2 9.3,11 9.5,13 10.5,12 13.6,15.2 15.1,13.7 12,10.5 	"/>
	<polygon fill="#020202" points="3,9.7 4,10.5 0.9,13.7 2.5,15.2 5.6,12 6.5,13 6.7,11 7,9.2 5,9.3 	"/>
</g>
</svg>
